<?xml version="1.0" standalone="no"?>
<!DOCTYPE svg PUBLIC "-//W3C//DTD SVG 20010904//EN"
 "http://www.w3.org/TR/2001/REC-SVG-20010904/DTD/svg10.dtd">
<svg version="1.0" xmlns="http://www.w3.org/2000/svg"
 width="360.000000pt" height="360.000000pt" viewBox="0 0 360.000000 360.000000"
 preserveAspectRatio="xMidYMid meet">

<g transform="translate(0.000000,360.000000) scale(0.100000,-0.100000)"
fill="#000000" stroke="none">
<path d="M1224 3200 c-45 -14 -115 -80 -146 -136 -70 -130 -59 -323 27 -500
19 -40 35 -77 35 -83 0 -11 -76 -71 -91 -71 -4 0 -54 33 -112 74 -199 139
-384 215 -490 200 -111 -14 -175 -110 -185 -274 -11 -203 70 -328 224 -346 69
-8 201 25 321 81 l98 46 -66 -68 c-117 -120 -120 -133 -55 -231 76 -116 158
-184 187 -155 5 5 -18 53 -58 118 -76 127 -80 101 37 247 42 51 83 104 93 117
12 18 27 26 55 27 48 2 145 49 189 90 24 23 33 40 33 64 0 28 14 47 103 134
56 56 125 120 152 143 l50 42 -32 6 -32 7 20 40 c30 59 30 117 -1 155 -14 17
-41 57 -60 88 -86 141 -202 213 -296 185z m140 -225 c3 -9 4 -57 2 -108 -3
-80 -7 -100 -34 -152 -17 -33 -40 -71 -51 -85 l-19 -24 -7 37 c-4 21 -5 81 -3
135 5 106 20 151 66 189 32 27 38 28 46 8z m-559 -576 l170 -33 -85 -12 c-47
-7 -125 -19 -174 -28 -119 -21 -246 -22 -246 -1 0 20 27 84 42 103 16 19 78
13 293 -29z"/>
<path d="M2218 2199 c-16 -9 -20 -23 -32 -111 l-5 -37 67 -15 c64 -15 68 -14
86 4 17 16 18 23 8 46 -7 14 -21 28 -32 31 -14 4 -20 14 -20 33 0 26 -26 60
-46 60 -5 0 -17 -5 -26 -11z"/>
<path d="M1742 2088 c-21 -21 -13 -49 25 -99 20 -27 38 -49 40 -49 12 0 105
66 113 80 21 39 -14 67 -69 55 -19 -4 -32 -1 -41 10 -15 18 -51 20 -68 3z"/>
<path d="M1562 1825 c-26 -22 -32 -23 -65 -13 -43 13 -82 -2 -94 -36 -15 -45
7 -76 82 -113 28 -14 57 -31 66 -39 13 -12 20 -8 50 34 42 58 79 123 79 139 0
16 -49 53 -71 53 -9 0 -31 -11 -47 -25z"/>
<path d="M2064 1801 c-55 -24 -71 -94 -49 -220 9 -52 15 -105 13 -120 -2 -16
2 -26 10 -25 6 1 70 2 141 3 115 1 131 3 162 24 19 13 37 36 42 53 19 66 -59
151 -131 142 -23 -3 -27 0 -24 19 4 27 -18 70 -51 101 -27 25 -81 36 -113 23z"/>
<path d="M311 1480 c-46 -75 -67 -160 -52 -209 25 -85 93 -135 276 -205 181
-69 260 -111 297 -159 30 -38 33 -47 34 -117 0 -45 6 -84 14 -96 14 -23 60
-54 80 -54 19 0 50 82 50 135 0 78 -17 120 -72 180 -59 65 -118 97 -301 165
-201 75 -237 109 -188 178 40 56 37 69 -18 92 -69 30 -94 60 -89 104 2 20 3
36 2 36 -1 0 -16 -23 -33 -50z"/>
<path d="M1308 1503 c7 -3 16 -2 19 1 4 3 -2 6 -13 5 -11 0 -14 -3 -6 -6z"/>
<path d="M1497 1482 c-25 -26 -38 -60 -19 -48 4 2 9 -4 9 -15 2 -23 -5 -24
-37 -3 l-25 16 24 -22 c13 -11 30 -19 36 -16 14 5 38 -31 30 -44 -3 -6 1 -7 9
-4 9 3 16 1 16 -5 0 -17 110 -45 123 -32 6 6 19 11 29 11 10 0 32 15 48 33 38
40 37 81 -2 110 -24 18 -32 19 -64 9 -34 -10 -38 -9 -56 13 -28 36 -85 34
-121 -3z"/>
<path d="M1568 535 c-78 -16 -103 -28 -140 -66 -55 -57 -29 -88 97 -114 86
-17 111 -14 140 21 26 31 144 59 240 58 40 -1 136 -17 225 -37 434 -100 444
-101 685 -102 234 0 296 8 515 62 128 31 149 41 77 35 -93 -7 -165 29 -197
100 l-17 38 -106 -55 c-211 -108 -294 -104 -1217 66 -67 12 -226 9 -302 -6z"/>
</g>
</svg>
